<svg width="26" height="26" viewBox="0 0 26 26" fill="none" xmlns="http://www.w3.org/2000/svg">
<g clip-path="url(#clip0_1_858)">
<path d="M12.6699 8.89938L16.3411 12.5705L16.3586 12.3782C16.3586 10.4494 14.7911 8.8819 12.8622 8.8819L12.6699 8.89938Z" fill="#ABABAB"/>
<path d="M12.8615 6.55099C16.0782 6.55099 18.6888 9.16161 18.6888 12.3782C18.6888 13.13 18.5373 13.8467 18.2751 14.5052L21.684 17.9141C23.4438 16.4456 24.8307 14.546 25.6873 12.3782C23.6653 7.26195 18.6946 3.63739 12.8616 3.63739C11.2299 3.63739 9.66827 3.92873 8.21729 4.45318L10.7347 6.9647C11.3931 6.70832 12.1098 6.55099 12.8615 6.55099Z" fill="#ABABAB"/>
<path d="M1.20742 3.37523L3.86464 6.03244L4.39493 6.56274C2.47195 8.06617 0.95104 10.0649 0.0419922 12.3783C2.05823 17.4946 7.03467 21.1191 12.8619 21.1191C14.6684 21.1191 16.3932 20.7695 17.9724 20.1343L18.4678 20.6297L21.865 24.0327L23.351 22.5526L2.69336 1.88928L1.20742 3.37523ZM7.65237 9.81433L9.45299 11.615C9.40054 11.8655 9.36558 12.1161 9.36558 12.3783C9.36558 14.3071 10.9331 15.8746 12.8619 15.8746C13.1241 15.8746 13.3747 15.8397 13.6195 15.7872L15.4201 17.5878C14.6451 17.9724 13.7827 18.2055 12.8619 18.2055C9.64529 18.2055 7.03467 15.5949 7.03467 12.3783C7.03467 11.4576 7.26778 10.5952 7.65237 9.81433Z" fill="#ABABAB"/>
</g>
<defs>
<clipPath id="clip0_1_858">
<rect width="25.6456" height="25.6456" fill="white" transform="translate(0.0419922 0.138184)"/>
</clipPath>
</defs>
</svg>
