<svg width="34" height="34" viewBox="0 0 34 34" fill="none" xmlns="http://www.w3.org/2000/svg">
<g clip-path="url(#clip0_1_684)">
<path d="M16.7039 12.0885L21.4445 16.8291L21.467 16.5808C21.467 14.0901 19.4429 12.0659 16.9522 12.0659L16.7039 12.0885Z" fill="#ABABAB"/>
<path d="M16.9522 9.056C21.1059 9.056 24.477 12.4271 24.477 16.5808C24.477 17.5515 24.2814 18.477 23.9428 19.3273L28.3448 23.7293C30.6172 21.833 32.4081 19.38 33.5143 16.5808C30.9032 9.97406 24.4846 5.29364 16.9523 5.29364C14.8453 5.29364 12.8287 5.66985 10.9551 6.34708L14.2058 9.59023C15.056 9.25916 15.9815 9.056 16.9522 9.056Z" fill="#ABABAB"/>
<path d="M1.90263 4.95519L5.33392 8.38648L6.0187 9.07126C3.53553 11.0126 1.57157 13.5937 0.397705 16.5809C3.0013 23.1877 9.42742 27.8681 16.9522 27.8681C19.2849 27.8681 21.5122 27.4166 23.5514 26.5964L24.1911 27.236L28.578 31.6304L30.4968 29.7192L3.82145 3.03638L1.90263 4.95519ZM10.2251 13.2701L12.5502 15.5952C12.4825 15.9188 12.4373 16.2423 12.4373 16.5809C12.4373 19.0717 14.4615 21.0958 16.9522 21.0958C17.2908 21.0958 17.6144 21.0507 17.9304 20.9829L20.2556 23.3081C19.2548 23.8047 18.1412 24.1057 16.9522 24.1057C12.7985 24.1057 9.42742 20.7346 9.42742 16.5809C9.42742 15.3921 9.72843 14.2784 10.2251 13.2701Z" fill="#ABABAB"/>
</g>
<defs>
<clipPath id="clip0_1_684">
<rect width="33.1165" height="33.1165" fill="white" transform="translate(0.397705 0.775146)"/>
</clipPath>
</defs>
</svg>
