<svg width="26" height="27" viewBox="0 0 26 27" fill="none" xmlns="http://www.w3.org/2000/svg">
<g clip-path="url(#clip0_1_819)">
<path d="M12.6699 9.72512L16.3411 13.3963L16.3586 13.204C16.3586 11.2751 14.7911 9.70764 12.8622 9.70764L12.6699 9.72512Z" fill="#ABABAB"/>
<path d="M12.8615 7.37679C16.0782 7.37679 18.6888 9.98741 18.6888 13.204C18.6888 13.9558 18.5373 14.6725 18.2751 15.331L21.684 18.7399C23.4438 17.2714 24.8307 15.3718 25.6873 13.204C23.6653 8.08775 18.6946 4.4632 12.8616 4.4632C11.2299 4.4632 9.66827 4.75454 8.21729 5.27899L10.7347 7.79051C11.3931 7.53413 12.1098 7.37679 12.8615 7.37679Z" fill="#ABABAB"/>
<path d="M1.20742 4.20103L3.86464 6.85825L4.39493 7.38855C2.47195 8.89197 0.95104 10.8907 0.0419922 13.2041C2.05823 18.3204 7.03467 21.945 12.8619 21.945C14.6684 21.945 16.3932 21.5953 17.9724 20.9601L18.4678 21.4555L21.865 24.8585L23.351 23.3785L2.69336 2.71509L1.20742 4.20103ZM7.65237 10.6401L9.45299 12.4408C9.40054 12.6913 9.36558 12.9419 9.36558 13.2041C9.36558 15.1329 10.9331 16.7004 12.8619 16.7004C13.1241 16.7004 13.3747 16.6655 13.6195 16.613L15.4201 18.4136C14.6451 18.7982 13.7827 19.0314 12.8619 19.0314C9.64529 19.0314 7.03467 16.4207 7.03467 13.2041C7.03467 12.2834 7.26778 11.421 7.65237 10.6401Z" fill="#ABABAB"/>
</g>
<defs>
<clipPath id="clip0_1_819">
<rect width="25.6456" height="25.6456" fill="white" transform="translate(0.0419922 0.963989)"/>
</clipPath>
</defs>
</svg>
