<svg width="26" height="26" viewBox="0 0 26 26" fill="none" xmlns="http://www.w3.org/2000/svg">
<g clip-path="url(#clip0_1_800)">
<path d="M12.6699 8.89932L16.3411 12.5705L16.3586 12.3782C16.3586 10.4493 14.7911 8.88184 12.8622 8.88184L12.6699 8.89932Z" fill="#ABABAB"/>
<path d="M12.8615 6.55093C16.0782 6.55093 18.6888 9.16154 18.6888 12.3782C18.6888 13.1299 18.5373 13.8466 18.2751 14.5051L21.684 17.914C23.4438 16.4456 24.8307 14.5459 25.6873 12.3782C23.6653 7.26189 18.6946 3.63733 12.8616 3.63733C11.2299 3.63733 9.66827 3.92867 8.21729 4.45312L10.7347 6.96464C11.3931 6.70826 12.1098 6.55093 12.8615 6.55093Z" fill="#ABABAB"/>
<path d="M1.20742 3.37517L3.86464 6.03238L4.39493 6.56268C2.47195 8.0661 0.95104 10.0649 0.0419922 12.3782C2.05823 17.4945 7.03467 21.1191 12.8619 21.1191C14.6684 21.1191 16.3932 20.7695 17.9724 20.1343L18.4678 20.6296L21.865 24.0327L23.351 22.5526L2.69336 1.88922L1.20742 3.37517ZM7.65237 9.81427L9.45299 11.6149C9.40054 11.8655 9.36558 12.116 9.36558 12.3782C9.36558 14.3071 10.9331 15.8746 12.8619 15.8746C13.1241 15.8746 13.3747 15.8396 13.6195 15.7872L15.4201 17.5878C14.6451 17.9724 13.7827 18.2055 12.8619 18.2055C9.64529 18.2055 7.03467 15.5949 7.03467 12.3782C7.03467 11.4576 7.26778 10.5951 7.65237 9.81427Z" fill="#ABABAB"/>
</g>
<defs>
<clipPath id="clip0_1_800">
<rect width="25.6456" height="25.6456" fill="white" transform="translate(0.0419922 0.138123)"/>
</clipPath>
</defs>
</svg>
