<svg width="157" height="41" viewBox="0 0 157 41" fill="none" xmlns="http://www.w3.org/2000/svg">
<g clip-path="url(#clip0_1_2911)">
<path d="M56.8947 1.53644H100.479C102.285 1.53644 103.749 3.00096 103.749 4.80783V29.3503C103.749 31.1572 102.285 32.6217 100.479 32.6217H56.8947C55.0885 32.6217 53.6241 31.1572 53.6241 29.3503V4.80783C53.6241 3.00096 55.0885 1.53644 56.8947 1.53644Z" fill="white" stroke="black" stroke-width="1.45813"/>
<path d="M4.67549 1.53644H48.2596C50.0658 1.53644 51.5302 3.00096 51.5302 4.80783V29.3503C51.5302 31.1572 50.0658 32.6217 48.2596 32.6217H4.67549C2.86929 32.6217 1.40485 31.1572 1.40485 29.3503V4.80783C1.40485 3.00096 2.86929 1.53644 4.67549 1.53644Z" fill="white" stroke="black" stroke-width="1.45813"/>
<path d="M90.8605 23.6356C87.5274 26.9693 82.2897 27.2551 78.6709 24.4611C79.0201 24.2389 79.3375 23.9531 79.655 23.6356C83.3055 20.0161 83.3055 14.1107 79.655 10.4912C79.3375 10.1737 79.0201 9.88799 78.6709 9.66575C82.2897 6.87177 87.5274 7.15752 90.8605 10.4912C94.4793 14.1107 94.4793 20.0161 90.8605 23.6356Z" fill="#F59F34"/>
<path d="M79.6547 23.6354C79.3373 23.9529 79.0199 24.2386 78.6707 24.4609C78.3215 24.2386 78.0041 23.9529 77.6866 23.6354C74.0361 20.0159 74.0361 14.1105 77.6866 10.491C78.0041 10.1735 78.3215 9.88778 78.6707 9.66553C79.0199 9.88778 79.3373 10.1735 79.6547 10.491C83.3053 14.1105 83.3053 20.0159 79.6547 23.6354Z" fill="#FC601E"/>
<path d="M77.6866 23.6356C78.004 23.9531 78.3215 24.2389 78.6706 24.4611C75.0519 27.2551 69.8141 26.9693 66.5128 23.6356C62.8623 20.0161 62.8623 14.1107 66.5128 10.4912C69.8141 7.15752 75.0519 6.87177 78.6706 9.66575C78.3215 9.88799 78.004 10.1737 77.6866 10.4912C74.0361 14.1107 74.0361 20.0161 77.6866 23.6356Z" fill="#E80222"/>
<path d="M40.5776 21.7302C40.5776 21.7302 40.4824 21.7302 40.4189 21.7302C39.7523 21.7302 39.1174 21.7302 38.4508 21.7302C38.3556 21.7302 38.3238 21.7302 38.3238 21.6349C38.2604 21.2857 38.1969 20.9682 38.1334 20.6189C38.1334 20.5237 38.1016 20.4602 38.0699 20.3649C38.0699 20.3649 38.0382 20.3332 38.0064 20.3014C37.9747 20.3014 37.9112 20.3014 37.8794 20.3014C36.9589 20.3014 36.0383 20.3014 35.086 20.3014C35.0542 20.3014 35.0225 20.3014 34.9908 20.3014C34.9908 20.3014 34.9273 20.3014 34.9273 20.3649C34.8003 20.7142 34.6733 21.0634 34.5463 21.4444C34.5463 21.4762 34.5463 21.5397 34.5146 21.5714C34.4829 21.7302 34.4829 21.7302 34.3241 21.7302C33.5623 21.7302 32.8004 21.7302 32.0703 21.7302C32.0386 21.7302 32.0068 21.7302 31.9434 21.7302C31.9434 21.6984 31.9434 21.6349 31.9751 21.6032C32.1338 21.1904 32.3243 20.7777 32.483 20.3649C32.737 19.7299 33.0226 19.0949 33.2766 18.4599C33.4671 17.9837 33.6575 17.5392 33.848 17.0629C34.0702 16.5232 34.3241 15.9517 34.5463 15.412C34.8003 14.8405 35.0225 14.269 35.2764 13.6975C35.3717 13.4435 35.4669 13.1895 35.5939 12.9672C35.7843 12.618 36.1018 12.4275 36.5145 12.4275C37.1493 12.4275 37.8159 12.4275 38.4826 12.4275C38.6095 12.4275 38.6095 12.4275 38.6413 12.5545C38.7048 12.8085 38.7365 13.0942 38.8 13.3482C38.927 13.9197 39.0539 14.4912 39.1492 15.0627C39.1809 15.2532 39.2127 15.412 39.2444 15.6025C39.3079 15.9517 39.4031 16.301 39.4666 16.6502C39.5301 16.9042 39.5618 17.1582 39.5936 17.3804C39.6571 17.6979 39.7523 18.0472 39.8158 18.3647C39.911 18.7457 39.9745 19.1584 40.038 19.5394C40.1332 19.9839 40.2285 20.4284 40.3237 20.8729C40.3237 20.9682 40.3237 21.0952 40.3872 21.1904C40.4189 21.3492 40.4507 21.5397 40.5142 21.7302H40.5776ZM36.9271 14.9675C36.9271 14.9675 36.9271 15.031 36.8954 15.0627C36.7367 15.539 36.5779 16.0152 36.3875 16.4597C36.1653 17.0947 35.9113 17.6979 35.6891 18.3329C35.6891 18.3964 35.6891 18.3964 35.7209 18.3964H35.7843C36.324 18.3964 36.8636 18.3964 37.4033 18.3964C37.4668 18.3964 37.562 18.3964 37.6572 18.3964C37.4033 17.2534 37.1811 16.1105 36.9271 14.9675Z" fill="#172285"/>
<path d="M22.0395 12.4275C22.0395 12.4275 22.0395 12.491 22.0078 12.5227C21.8173 12.9672 21.6269 13.4117 21.4364 13.8562C21.1507 14.4912 20.8968 15.158 20.6111 15.793C20.4206 16.2692 20.2301 16.7137 20.0397 17.1899C19.8175 17.6979 19.627 18.1742 19.4048 18.6822C19.1826 19.2537 18.9286 19.7934 18.7064 20.3649C18.5477 20.7142 18.4207 21.0634 18.262 21.4127C18.262 21.4762 18.1985 21.5714 18.1668 21.6349C18.1668 21.7302 18.0716 21.7619 18.0081 21.7619C17.4049 21.7619 16.7701 21.7619 16.1669 21.7619C16.0082 21.7619 15.8178 21.7619 15.659 21.7619C15.5956 21.7619 15.5638 21.7619 15.5638 21.6984C15.4368 21.1904 15.3099 20.7142 15.1829 20.2062C15.1829 20.0792 15.1511 19.9839 15.1194 19.8569C15.1194 19.7617 15.0877 19.6982 15.0559 19.6029C14.9607 19.2537 14.8337 18.9362 14.7702 18.5869C14.675 18.0472 14.4845 17.5074 14.3575 16.9677C14.2623 16.5232 14.1353 16.0787 14.0084 15.6342C13.9766 15.4755 13.9449 15.3167 13.9131 15.158C13.8179 14.777 13.6909 14.4277 13.5957 14.0467C13.5322 13.8245 13.3735 13.6657 13.1513 13.5705C12.8338 13.4117 12.4847 13.253 12.1672 13.126C11.8815 13.0307 11.5958 12.9672 11.3419 12.9037C11.1832 12.872 10.9927 12.8085 10.834 12.7767C10.7705 12.7767 10.7705 12.7767 10.7705 12.6815C10.8023 12.491 10.8023 12.491 10.9927 12.491C12.2625 12.491 13.564 12.491 14.8337 12.491C15.1511 12.491 15.4368 12.5862 15.6908 12.8085C15.8812 12.999 15.9765 13.253 16.04 13.507C16.1035 13.7927 16.1669 14.0785 16.1987 14.3325C16.3257 15.0627 16.4844 15.8247 16.6114 16.555C16.7383 17.1582 16.8336 17.7614 16.9605 18.3329C16.9605 18.4282 16.9605 18.5234 16.9923 18.6187C16.9923 18.6822 17.024 18.7139 17.0558 18.7774C17.0558 18.7774 17.0558 18.7457 17.0875 18.7139C17.1827 18.4282 17.278 18.1424 17.4049 17.8884C17.5319 17.5709 17.6589 17.2534 17.7859 16.9042C17.9446 16.5232 18.1033 16.1105 18.262 15.7295C18.389 15.412 18.516 15.0945 18.6429 14.777C18.8017 14.396 18.9286 14.015 19.0874 13.634C19.2143 13.2847 19.3413 12.9672 19.4683 12.618C19.5318 12.491 19.5318 12.491 19.6587 12.491C20.4206 12.491 21.1824 12.491 21.9443 12.491C21.9443 12.491 21.976 12.491 22.0395 12.491V12.4275Z" fill="#172285"/>
<path d="M32.0704 14.6503C32.0704 14.6503 31.7847 14.5233 31.626 14.4598C31.1181 14.2693 30.5784 14.2058 30.0388 14.2058C29.7848 14.2058 29.4991 14.2058 29.2452 14.3328C29.023 14.3963 28.8643 14.555 28.7373 14.7455C28.6421 14.936 28.6103 15.1265 28.7373 15.2853C28.8008 15.3805 28.896 15.4758 28.9912 15.571C29.2769 15.7933 29.6261 15.952 29.9435 16.1425C30.3245 16.3648 30.7054 16.5553 31.0546 16.841C31.2768 16.9998 31.4672 17.1903 31.626 17.4443C31.9751 17.984 32.0704 18.5555 31.9751 19.1587C31.8164 20.016 31.4038 20.6827 30.6419 21.159C30.0705 21.5082 29.4674 21.7305 28.8325 21.794C28.4833 21.8257 28.1342 21.8575 27.785 21.8575C27.4993 21.8575 27.1818 21.8257 26.8962 21.794C26.4835 21.7622 26.0708 21.6987 25.6581 21.54C25.4994 21.4765 25.3407 21.4447 25.182 21.3812C25.1185 21.3812 25.1185 21.3177 25.1502 21.286C25.182 21.1272 25.2137 20.9367 25.2772 20.778C25.3725 20.3335 25.4677 19.8572 25.5629 19.4127C25.5629 19.4127 25.5629 19.381 25.5629 19.3492C25.6899 19.4127 25.8169 19.4445 25.9438 19.508C26.3248 19.6667 26.7057 19.7937 27.1184 19.8572C27.2453 19.8572 27.3723 19.8572 27.4993 19.8572C27.8485 19.8572 28.1976 19.889 28.5468 19.8572C28.8325 19.8255 29.0547 19.6985 29.2769 19.508C29.5626 19.254 29.5944 18.8412 29.3404 18.5237C29.2452 18.4285 29.1182 18.3015 29.023 18.238C28.7373 18.0792 28.4516 17.9205 28.1659 17.7618C28.0072 17.6983 27.8802 17.603 27.7532 17.5078C27.4675 17.349 27.2136 17.1585 26.9596 16.9363C26.6739 16.6823 26.4517 16.3648 26.3248 16.0473C26.2295 15.7933 26.166 15.5075 26.1978 15.19C26.1978 14.7455 26.3248 14.3328 26.5787 13.9518C26.8961 13.412 27.3406 13.031 27.8485 12.777C28.2611 12.5866 28.6738 12.3961 29.1182 12.3326C29.15 12.3326 29.1817 12.3326 29.2452 12.3326C29.2452 12.3326 29.2769 12.3326 29.3087 12.3326C29.5309 12.2373 29.7848 12.2373 30.007 12.2373C30.134 12.2373 30.2927 12.2373 30.4197 12.2691C30.5149 12.2691 30.6102 12.2691 30.6737 12.2691C31.1816 12.3008 31.7212 12.3643 32.1974 12.5548C32.2608 12.5548 32.3561 12.6183 32.4513 12.6183C32.5148 12.6183 32.5465 12.6501 32.5148 12.7453C32.4513 13.031 32.3878 13.3485 32.3243 13.6343C32.2608 13.9518 32.1973 14.2375 32.1339 14.555C32.1339 14.555 32.1339 14.6185 32.1339 14.6503H32.0704Z" fill="#172285"/>
<path d="M21.0869 21.7302C21.0869 21.7302 21.1187 21.5079 21.1504 21.4127C21.2456 20.9364 21.3726 20.4602 21.4678 19.9839C21.5948 19.4442 21.69 18.8727 21.817 18.3329C21.944 17.698 22.1027 17.0312 22.2297 16.3962C22.3567 15.793 22.4836 15.1897 22.6106 14.5865C22.7376 13.9832 22.8646 13.3482 22.9915 12.745C22.9915 12.6815 23.0233 12.5863 23.0233 12.491C23.0233 12.4275 23.055 12.3958 23.1185 12.3958C23.182 12.3958 23.2137 12.3958 23.2772 12.3958C23.9756 12.3958 24.674 12.3958 25.3406 12.3958C25.4041 12.3958 25.4675 12.3958 25.4358 12.491C25.3406 12.9672 25.2453 13.4117 25.1501 13.888C25.0231 14.4595 24.8962 15.031 24.8009 15.5707C24.6422 16.301 24.4835 17.0312 24.3248 17.7615C24.1661 18.5234 23.9756 19.3172 23.8169 20.0792C23.7216 20.5554 23.6264 21.0317 23.5312 21.5079C23.4994 21.6984 23.4994 21.6984 23.2772 21.6984C22.5789 21.6984 21.8805 21.6984 21.2139 21.6984C21.1821 21.6984 21.1504 21.6984 21.0869 21.6984V21.7302Z" fill="#172285"/>
</g>
<defs>
<clipPath id="clip0_1_2911">
<rect width="156.02" height="39.3696" fill="white" transform="translate(0.67627 0.807373)"/>
</clipPath>
</defs>
</svg>
