<svg width="41" height="41" viewBox="0 0 41 41" fill="none" xmlns="http://www.w3.org/2000/svg">
<g clip-path="url(#clip0_1_668)">
<path d="M4.26508 6.34727H37.4093C39.3581 6.34727 40.9436 7.93278 40.9436 9.88161V30.3636C40.9436 32.3124 39.3581 33.8979 37.4093 33.8979H4.26508C2.31625 33.8979 0.730747 32.3124 0.730747 30.3636V9.88161C0.730747 7.93278 2.31625 6.34727 4.26508 6.34727ZM4.72635 8.7035L5.19807 9.09628L19.4349 20.9513C20.2475 21.6278 21.427 21.6278 22.2394 20.9513L36.4763 9.09628L36.948 8.7035H4.72635ZM38.5874 10.4045L26.9875 20.0637L38.5874 27.7837V10.4045ZM4.26508 31.5417H37.4093C37.9785 31.5417 38.4546 31.1358 38.5637 30.5984L25.0983 21.6368L23.7471 22.762C22.9041 23.464 21.8705 23.815 20.8371 23.815C19.8037 23.815 18.7702 23.464 17.9271 22.762L16.5759 21.6368L3.11053 30.5983C3.2197 31.1359 3.69582 31.5417 4.26508 31.5417ZM3.08697 27.7837L14.6868 20.0638L3.08697 10.4045V27.7837Z" fill="#294B75"/>
</g>
<defs>
<clipPath id="clip0_1_668">
<rect width="40.2129" height="40.2129" fill="white" transform="matrix(-1 0 0 1 40.9436 0.016098)"/>
</clipPath>
</defs>
</svg>
