<svg width="32" height="32" viewBox="0 0 32 32" fill="none" xmlns="http://www.w3.org/2000/svg">
<g clip-path="url(#clip0_2_34)">
<path d="M2.73699 5.19116H28.4041C29.9133 5.19116 31.1411 6.41899 31.1411 7.92818V23.7896C31.1411 25.2988 29.9133 26.5266 28.4041 26.5266H2.73699C1.2278 26.5266 -2.67029e-05 25.2988 -2.67029e-05 23.7896V7.92818C-2.67029e-05 6.41899 1.2278 5.19116 2.73699 5.19116ZM3.0942 7.01584L3.4595 7.32001L14.4846 16.5006C15.1139 17.0246 16.0273 17.0246 16.6565 16.5006L27.6816 7.32001L28.0469 7.01584H3.0942ZM29.3164 8.33313L20.3334 15.8133L29.3164 21.7917V8.33313ZM2.73699 24.7019H28.4041C28.8449 24.7019 29.2136 24.3876 29.2981 23.9714L18.8704 17.0315L17.824 17.9028C17.1711 18.4465 16.3708 18.7183 15.5705 18.7183C14.7702 18.7183 13.9699 18.4465 13.3169 17.9028L12.2706 17.0315L1.8429 23.9713C1.92744 24.3877 2.29615 24.7019 2.73699 24.7019ZM1.82465 21.7917L10.8077 15.8133L1.82465 8.33313V21.7917Z" fill="#294B75"/>
</g>
<defs>
<clipPath id="clip0_2_34">
<rect width="31.1411" height="31.1411" fill="white" transform="matrix(-1 0 0 1 31.1411 0.2883)"/>
</clipPath>
</defs>
</svg>
