<svg width="32" height="32" viewBox="0 0 32 32" fill="none" xmlns="http://www.w3.org/2000/svg">
<g clip-path="url(#clip0_1_793)">
<path d="M23.8198 13.3906V8.45894C23.833 6.2275 22.9418 4.08189 21.3507 2.51724C19.8125 0.985597 17.7989 0.147156 15.6665 0.147156C15.6335 0.147156 15.5939 0.147156 15.5609 0.147156C11.0122 0.153758 7.31509 3.87723 7.31509 8.45894V13.3906C5.5986 13.5952 4.34424 15.0344 4.34424 16.7773V27.8553C4.34424 29.7369 5.84947 31.2883 7.73101 31.2883H23.4105C25.2921 31.2883 26.7973 29.7369 26.7973 27.8553V16.7773C26.7907 15.041 25.5363 13.5952 23.8198 13.3906ZM8.62887 8.45894H8.63547C8.63547 4.60344 11.745 1.44773 15.5675 1.44773H15.5741C17.3896 1.44113 19.1325 2.16073 20.4199 3.4415C21.76 4.76848 22.5061 6.5774 22.4929 8.45894V13.3972H21.0404V8.45894C21.0536 6.96031 20.4595 5.5211 19.3966 4.4648C18.3931 3.46131 17.0331 2.89354 15.6137 2.89354H15.5741C12.5372 2.89354 10.0813 5.38906 10.0813 8.45234V13.3972H8.62887V8.45894V8.45894ZM19.7267 8.45894V13.3972H11.4083V8.45894C11.4083 6.12187 13.27 4.22053 15.5807 4.22053H15.6203C16.6898 4.22053 17.7197 4.64965 18.4789 5.40887C19.2843 6.2143 19.7399 7.31681 19.7267 8.45894ZM25.5363 27.8751C25.5363 29.0304 24.5989 29.9679 23.4435 29.9679H7.75742C6.60209 29.9679 5.66462 29.0304 5.66462 27.8751V16.8103C5.66462 15.655 6.60209 14.7175 7.75742 14.7175H23.4435C24.5989 14.7175 25.5363 15.655 25.5363 16.8103V27.8751Z" fill="#294B75"/>
<path d="M17.8516 21.9334C17.5611 20.9101 16.6303 20.2103 15.5674 20.2103C14.2536 20.2103 13.1841 21.2732 13.1841 22.5936C13.1841 23.6565 13.8839 24.5874 14.9072 24.8779V26.7264C14.9072 27.0895 15.2043 27.3866 15.5674 27.3866C15.9305 27.3866 16.2276 27.0895 16.2276 26.7264V24.8779C17.4885 24.5148 18.2213 23.1944 17.8516 21.9334ZM15.5674 23.6499C14.9798 23.6499 14.5045 23.1746 14.5045 22.587C14.5045 21.9994 14.9798 21.5241 15.5674 21.5241C16.1549 21.5241 16.6303 21.9994 16.6303 22.587C16.6303 23.1746 16.1549 23.6499 15.5674 23.6499Z" fill="#294B75"/>
</g>
<defs>
<clipPath id="clip0_1_793">
<rect width="31.1411" height="31.1411" fill="white" transform="translate(0 0.147156)"/>
</clipPath>
</defs>
</svg>
