<svg width="32" height="32" viewBox="0 0 32 32" fill="none" xmlns="http://www.w3.org/2000/svg">
<g clip-path="url(#clip0_1_812)">
<path d="M23.8198 13.8801V8.94844C23.833 6.717 22.9418 4.57139 21.3507 3.00674C19.8125 1.4751 17.7989 0.636658 15.6665 0.636658C15.6335 0.636658 15.5939 0.636658 15.5609 0.636658C11.0122 0.64326 7.31509 4.36673 7.31509 8.94844V13.8801C5.5986 14.0847 4.34424 15.5239 4.34424 17.2668V28.3448C4.34424 30.2264 5.84947 31.7778 7.73101 31.7778H23.4105C25.2921 31.7778 26.7973 30.2264 26.7973 28.3448V17.2668C26.7907 15.5305 25.5363 14.0847 23.8198 13.8801ZM8.62887 8.94844H8.63547C8.63547 5.09294 11.745 1.93723 15.5675 1.93723H15.5741C17.3896 1.93063 19.1325 2.65024 20.4199 3.931C21.76 5.25798 22.5061 7.0669 22.4929 8.94844V13.8867H21.0404V8.94844C21.0536 7.44981 20.4595 6.0106 19.3966 4.9543C18.3931 3.95081 17.0331 3.38305 15.6137 3.38305H15.5741C12.5372 3.38305 10.0813 5.87856 10.0813 8.94184V13.8867H8.62887V8.94844V8.94844ZM19.7267 8.94844V13.8867H11.4083V8.94844C11.4083 6.61137 13.27 4.71003 15.5807 4.71003H15.6203C16.6898 4.71003 17.7197 5.13915 18.4789 5.89837C19.2843 6.7038 19.7399 7.80632 19.7267 8.94844ZM25.5363 28.3646C25.5363 29.52 24.5989 30.4574 23.4435 30.4574H7.75742C6.60209 30.4574 5.66462 29.52 5.66462 28.3646V17.2998C5.66462 16.1445 6.60209 15.207 7.75742 15.207H23.4435C24.5989 15.207 25.5363 16.1445 25.5363 17.2998V28.3646Z" fill="#294B75"/>
<path d="M17.8516 22.4229C17.5611 21.3996 16.6303 20.6998 15.5674 20.6998C14.2536 20.6998 13.1841 21.7627 13.1841 23.0831C13.1841 24.146 13.8839 25.0769 14.9072 25.3674V27.2159C14.9072 27.579 15.2043 27.8761 15.5674 27.8761C15.9305 27.8761 16.2276 27.579 16.2276 27.2159V25.3674C17.4885 25.0043 18.2213 23.6839 17.8516 22.4229ZM15.5674 24.1394C14.9798 24.1394 14.5045 23.6641 14.5045 23.0765C14.5045 22.4889 14.9798 22.0136 15.5674 22.0136C16.1549 22.0136 16.6303 22.4889 16.6303 23.0765C16.6303 23.6641 16.1549 24.1394 15.5674 24.1394Z" fill="#294B75"/>
</g>
<defs>
<clipPath id="clip0_1_812">
<rect width="31.1411" height="31.1411" fill="white" transform="translate(0 0.636658)"/>
</clipPath>
</defs>
</svg>
