<svg width="30" height="31" viewBox="0 0 30 31" fill="none" xmlns="http://www.w3.org/2000/svg">
<g clip-path="url(#clip0_1_831)">
<path d="M14.4457 14.9172C16.3853 14.9172 18.0646 14.2216 19.4371 12.849C20.8092 11.4767 21.5051 9.79764 21.5051 7.85781C21.5051 5.91865 20.8095 4.23932 19.4369 2.86657C18.0644 1.49448 16.3851 0.798828 14.4457 0.798828C12.5058 0.798828 10.8267 1.49448 9.45442 2.86679C8.08211 4.2391 7.38623 5.91842 7.38623 7.85781C7.38623 9.79764 8.08211 11.477 9.45442 12.8493C10.8272 14.2214 12.5065 14.9172 14.4457 14.9172ZM10.6691 4.08123C11.7221 3.02824 12.9573 2.51639 14.4457 2.51639C15.9338 2.51639 17.1693 3.02824 18.2225 4.08123C19.2755 5.13444 19.7875 6.36989 19.7875 7.85781C19.7875 9.34617 19.2755 10.5814 18.2225 11.6346C17.1693 12.6878 15.9338 13.1997 14.4457 13.1997C12.9578 13.1997 11.7225 12.6876 10.6691 11.6346C9.61587 10.5816 9.1038 9.34617 9.1038 7.85781C9.1038 6.36989 9.61587 5.13444 10.6691 4.08123Z" fill="black"/>
<path d="M26.7979 23.3362C26.7584 22.765 26.6783 22.1421 26.5605 21.4842C26.4415 20.8214 26.2883 20.1949 26.105 19.6222C25.9153 19.0303 25.658 18.4458 25.3393 17.8856C25.009 17.3042 24.6208 16.798 24.1853 16.3814C23.7298 15.9456 23.1721 15.5952 22.5272 15.3396C21.8845 15.0853 21.1723 14.9565 20.4105 14.9565C20.1113 14.9565 19.8219 15.0793 19.2631 15.4431C18.9192 15.6674 18.5169 15.9268 18.0679 16.2137C17.6839 16.4583 17.1638 16.6875 16.5214 16.895C15.8946 17.0978 15.2582 17.2007 14.6299 17.2007C14.0019 17.2007 13.3655 17.0978 12.7383 16.895C12.0965 16.6877 11.5762 16.4585 11.1929 16.2139C10.7482 15.9297 10.3457 15.6703 9.9966 15.4429C9.43824 15.0791 9.14889 14.9563 8.8497 14.9563C8.08763 14.9563 7.37565 15.0853 6.73321 15.3398C6.08876 15.5949 5.53084 15.9453 5.0749 16.3816C4.6393 16.7984 4.25111 17.3044 3.92106 17.8856C3.60286 18.4458 3.34526 19.0301 3.15563 19.6224C2.9725 20.1951 2.81932 20.8214 2.70036 21.4842C2.58229 22.1412 2.50246 22.7644 2.46288 23.3368C2.42397 23.8965 2.4043 24.479 2.4043 25.0676C2.4043 26.5975 2.89065 27.8361 3.84973 28.7496C4.79695 29.651 6.05007 30.108 7.57444 30.108H21.6871C23.211 30.108 24.4641 29.651 25.4115 28.7496C26.3708 27.8368 26.8572 26.5978 26.8572 25.0674C26.857 24.4768 26.8371 23.8943 26.7979 23.3362ZM24.2273 27.5052C23.6014 28.1009 22.7705 28.3905 21.6868 28.3905H7.57444C6.49059 28.3905 5.65964 28.1009 5.03398 27.5054C4.42016 26.9211 4.12186 26.1235 4.12186 25.0676C4.12186 24.5184 4.13998 23.9761 4.1762 23.4556C4.21153 22.9448 4.28376 22.3838 4.39087 21.7876C4.49664 21.1989 4.63125 20.6463 4.79136 20.1461C4.94498 19.6665 5.1545 19.1915 5.41434 18.734C5.66233 18.298 5.94766 17.9239 6.2625 17.6224C6.557 17.3404 6.9282 17.1097 7.36558 16.9366C7.7701 16.7765 8.2247 16.6888 8.71821 16.6757C8.77837 16.7076 8.88548 16.7687 9.059 16.8818C9.41208 17.1119 9.81906 17.3744 10.269 17.6618C10.7761 17.9851 11.4295 18.2772 12.2101 18.5292C13.0082 18.7872 13.8222 18.9183 14.6301 18.9183C15.438 18.9183 16.2522 18.7872 17.0498 18.5294C17.8311 18.2769 18.4843 17.9851 18.9921 17.6613C19.4525 17.3671 19.8481 17.1121 20.2012 16.8818C20.3747 16.7689 20.4818 16.7076 20.5419 16.6757C21.0357 16.6888 21.4903 16.7765 21.895 16.9366C22.3322 17.1097 22.7034 17.3407 22.9979 17.6224C23.3127 17.9236 23.598 18.2977 23.846 18.7342C24.1061 19.1915 24.3158 19.6667 24.4692 20.1459C24.6296 20.6468 24.7644 21.1991 24.87 21.7874C24.9768 22.3847 25.0493 22.946 25.0846 23.4558V23.4562C25.1211 23.9748 25.1394 24.5168 25.1396 25.0676C25.1394 26.1237 24.8411 26.9211 24.2273 27.5052Z" fill="black"/>
</g>
<defs>
<clipPath id="clip0_1_831">
<rect width="29.3093" height="29.3093" fill="white" transform="translate(0 0.798828)"/>
</clipPath>
</defs>
</svg>
